PathFileType	4	(X/Y/Z)	C:/Users/opensim2020/Desktop/walking_exp_matlab/subject01/subject01_trc/subject01_walking17_run_cyclic.trc																																																																																																																																																																																					
DataRate	CameraRate	NumFrames	NumMarkers	Units	OrigDataRate	OrigDataStartFrame	OrigNumFrames																																																																																																																																																																																	
100	100	4	61	mm	100	333	58																																																																																																																																																																																	
Frame#	Time	LTHI			LKNE			RELB			STRN			RWRA			LSHO			RFRM			RUPA			RSHO			RASI			RBHD			RFIN			LFHD			RFHD			CLAV			LHEE			RWRB			LASI			LBHD			LWRA			LTIB			RTHI			LWRB			LTOE			RKNE			C7			LFRM			LFIN			LUPA			LELB			RTIB			RTOE			RBAK			RANK			T10			LPSI			LANK			RHEE			RPSI			*39			*40			*41			*42			*43			*44			*45			*46			*47			*48			*49			*50			*51			*52			*53			*54			*55			*56			*57			*58			*59			*60		
		X1	Y1	Z1	X2	Y2	Z2	X3	Y3	Z3	X4	Y4	Z4	X5	Y5	Z5	X6	Y6	Z6	X7	Y7	Z7	X8	Y8	Z8	X9	Y9	Z9	X10	Y10	Z10	X11	Y11	Z11	X12	Y12	Z12	X13	Y13	Z13	X14	Y14	Z14	X15	Y15	Z15	X16	Y16	Z16	X17	Y17	Z17	X18	Y18	Z18	X19	Y19	Z19	X20	Y20	Z20	X21	Y21	Z21	X22	Y22	Z22	X23	Y23	Z23	X24	Y24	Z24	X25	Y25	Z25	X26	Y26	Z26	X27	Y27	Z27	X28	Y28	Z28	X29	Y29	Z29	X30	Y30	Z30	X31	Y31	Z31	X32	Y32	Z32	X33	Y33	Z33	X34	Y34	Z34	X35	Y35	Z35	X36	Y36	Z36	X37	Y37	Z37	X38	Y38	Z38	X39	Y39	Z39	X40	Y40	Z40	X41	Y41	Z41	X42	Y42	Z42	X43	Y43	Z43	X44	Y44	Z44	X45	Y45	Z45	X46	Y46	Z46	X47	Y47	Z47	X48	Y48	Z48	X49	Y49	Z49	X50	Y50	Z50	X51	Y51	Z51	X52	Y52	Z52	X53	Y53	Z53	X54	Y54	Z54	X55	Y55	Z55	X56	Y56	Z56	X57	Y57	Z57	X58	Y58	Z58	X59	Y59	Z59	X60	Y60	Z60	X61	Y61	Z61
																																																																																																																																																																																								
50	0.49	935.88837	602.9494	-593.31708	983.26648	479.83112	-572.85522	749.08679	1025.64478	-106.51092	920.72687	1154.18005	-415.17371	948.37994	935.20447	-227.13863	834.70886	1348.63123	-561.00311	845.94513	946.30817	-138.84366	755.62054	1151.81848	-137.65825	834.24652	1328.63416	-248.68098	818.14905	895.31531	-308.04245	774.58795	1570.29907	-313.21469	1016.55048	896.59467	-216.43378	848.82758	1630.19214	-453.03058	876.13312	1639.4729	-343.22226	889.74573	1311.80212	-401.64185	583.43463	357.74518	-466.96622	946.87433	892.27002	-187.95934	825.81512	889.72314	-521.85809	747.42352	1563.81396	-429.41	825.46503	914.28876	-655.91528	825.66901	407.20792	-576.58917	832.30072	561.96057	-267.3588	793.14551	888.20691	-699.50208	629.42084	179.76318	-533.43994	868.03162	404.39011	-300.34207	748.13818	1389.21619	-397.11371	740.01227	995.02734	-727.56702	860.81165	849.25781	-682.44031	744.17218	1225.19739	-676.44238	676.00861	1105.00903	-736.88501	758.69806	260.18994	-293.91513	767.08746	37.45838	-362.96768	674.05298	1202.47034	-330.51007	642.57074	91.94839	-343.34906	675.61169	1107.88989	-411.96524	643.59882	908.86078	-486.78516	622.9079	330.31036	-523.02521	576.67657	74.39863	-389.38968	637.06842	911.5838	-346.87097	1973.14905	1023.57648	-3102.00269	2012.48279	1022.12396	-3140.73389	NaN	NaN	NaN	851.71594	1668.81152	-361.52988	NaN	NaN	NaN	NaN	NaN	NaN	NaN	NaN	NaN	NaN	NaN	NaN	NaN	NaN	NaN	NaN	NaN	NaN	NaN	NaN	NaN	NaN	NaN	NaN	NaN	NaN	NaN	NaN	NaN	NaN	NaN	NaN	NaN	NaN	NaN	NaN	NaN	NaN	NaN	NaN	NaN	NaN	NaN	NaN	NaN	NaN	NaN	NaN	NaN	NaN	NaN	NaN	NaN	NaN
51	0.5	996.58325	620.83356	-592.79376	1051.76184	501.19904	-572.67456	809.18323	1025.25867	-113.54816	963.59344	1156.39148	-418.91617	1011.23016	954.36591	-242.75914	875.93469	1352.17517	-562.13885	910.12585	953.65698	-151.99028	810.57849	1152.08264	-140.87201	881.86487	1332.74622	-250.22238	861.88214	896.0719	-307.79437	820.41296	1572.94299	-313.64499	1082.04834	920.08752	-234.76384	894.32391	1633.1366	-453.56659	922.29602	1641.60327	-343.8342	933.84363	1314.26172	-404.63092	662.96606	337.68497	-467.59915	1013.53052	910.15692	-206.09431	869.90717	895.7807	-522.31116	792.53644	1567.30591	-429.67392	849.28943	917.02979	-673.62946	902.61151	411.52335	-576.32587	858.39996	556.65466	-268.26025	813.25885	894.56702	-716.3468	729.04724	166.13506	-533.28625	883.92035	397.91211	-297.70584	790.39612	1390.58728	-397.12823	763.68677	1004.68365	-736.66425	879.82721	851.17273	-704.46155	778.68152	1233.75171	-675.92255	704.82758	1118.36731	-736.93866	772.63177	262.73212	-294.65585	766.80859	37.35312	-363.2532	719.98346	1204.45654	-330.27957	645.86005	100.11496	-343.80038	718.62372	1111.24622	-412.28036	688.1153	913.06573	-485.77591	705.83441	314.01489	-523.49359	580.26678	87.39429	-389.95557	682.67322	915.65839	-345.30786	1973.10425	1023.50299	-3102.00879	2012.49023	1022.17542	-3140.76538	NaN	NaN	NaN	898.76819	1670.94739	-361.7218	NaN	NaN	NaN	NaN	NaN	NaN	NaN	NaN	NaN	NaN	NaN	NaN	NaN	NaN	NaN	NaN	NaN	NaN	NaN	NaN	NaN	NaN	NaN	NaN	NaN	NaN	NaN	NaN	NaN	NaN	NaN	NaN	NaN	NaN	NaN	NaN	NaN	NaN	NaN	NaN	NaN	NaN	NaN	NaN	NaN	NaN	NaN	NaN	NaN	NaN	NaN	NaN	NaN	NaN
52	0.51	1054.82874	639.47009	-591.29993	1116.58472	522.97601	-571.4447	867.65662	1027.06836	-120.31351	1007.00714	1160.04065	-423.02618	1070.58398	976.17633	-257.84674	916.35016	1356.68811	-564.11151	971.99817	963.24878	-164.89336	864.88403	1154.28906	-143.536	929.20227	1338.08655	-252.16956	907.64795	897.89349	-307.88187	866.3576	1577.05896	-314.44028	1143.58997	945.82422	-252.61412	940.04413	1636.83423	-454.39996	968.78265	1644.67432	-344.98227	977.71814	1317.94006	-408.05814	745.01117	316.1214	-467.23776	1076.27893	930.29968	-224.18398	914.76849	903.29315	-522.75281	837.81738	1572.22986	-430.26169	874.13403	922.99194	-689.16949	976.55615	416.7681	-576.2088	883.06653	556.21466	-268.27112	835.60205	903.89771	-730.87817	830.0199	153.16211	-532.59692	904.33734	398.15604	-297.04901	833	1393.71667	-397.17566	788.4292	1015.99213	-744.1394	901.29871	856.60974	-722.87219	813.33661	1243.22192	-675.36969	734.15088	1131.74487	-736.66205	786.08936	269.24048	-294.21121	766.88391	37.2184	-363.30801	765.99915	1207.6803	-329.39255	652.23035	111.58762	-343.11844	762.81592	1114.70056	-412.3241	733.34235	917.01141	-484.52676	790.56799	296.92416	-523.25873	586.08997	102.2369	-390.18109	729.06818	918.86853	-343.46497	1973.05688	1023.45148	-3101.9104	2012.49646	1022.15454	-3140.77686	NaN	NaN	NaN	946.24475	1673.96252	-362.76453	NaN	NaN	NaN	NaN	NaN	NaN	NaN	NaN	NaN	NaN	NaN	NaN	NaN	NaN	NaN	NaN	NaN	NaN	NaN	NaN	NaN	NaN	NaN	NaN	NaN	NaN	NaN	NaN	NaN	NaN	NaN	NaN	NaN	NaN	NaN	NaN	NaN	NaN	NaN	NaN	NaN	NaN	NaN	NaN	NaN	NaN	NaN	NaN	NaN	NaN	NaN	NaN	NaN	NaN
53	0.52	1110.89771	658.35449	-589.44287	1177.84387	544.90662	-570.82111	925.1203	1030.46057	-126.53791	1050.60645	1165.04285	-427.12659	1126.51331	999.50873	-271.74323	956.14044	1362.27173	-566.2879	1031.17041	974.74835	-178.13849	918.64276	1157.96606	-145.74017	976.15076	1344.09448	-254.92526	953.95251	900.05157	-310.07516	912.22705	1582.09521	-315.80209	1201.55786	972.90558	-270.07477	986.05768	1641.40393	-456.01944	1015.18579	1648.453	-346.67642	1021.35706	1322.54187	-411.76193	830.28412	292.7518	-465.69754	1135.14868	951.90436	-241.72954	959.89374	910.6051	-522.49786	883.09955	1578.00964	-431.55463	900.69751	931.39728	-702.0545	1047.27527	422.19333	-575.51434	911.3949	559.61084	-267.75778	860.27686	915.30426	-743.10461	932.25702	141.64575	-531.78784	927.03491	400.0386	-297.21884	876.87878	1398.33545	-397.41232	814.69598	1028.45911	-749.93988	925.13141	864.87024	-738.46411	848.36627	1253.09509	-675.15698	764.18164	1144.82422	-736.23932	799.82172	276.79276	-293.19604	767.35913	37.14467	-363.34918	812.19702	1211.91687	-327.48236	660.32629	123.72115	-341.73785	807.9314	1118.84045	-411.87692	779.16266	921.02124	-482.88037	877.03412	279.6452	-522.20837	595.39905	119.37413	-388.80219	775.84039	921.71106	-341.52576	1972.98816	1023.9527	-3102.01563	2012.47986	1022.10962	-3140.80835	NaN	NaN	NaN	993.58423	1678.01624	-364.60635	NaN	NaN	NaN	NaN	NaN	NaN	NaN	NaN	NaN	NaN	NaN	NaN	NaN	NaN	NaN	NaN	NaN	NaN	NaN	NaN	NaN	NaN	NaN	NaN	NaN	NaN	NaN	NaN	NaN	NaN	NaN	NaN	NaN	NaN	NaN	NaN	NaN	NaN	NaN	NaN	NaN	NaN	NaN	NaN	NaN	NaN	NaN	NaN	NaN	NaN	NaN	NaN	NaN	NaN
